<?xml version="1.0" encoding="utf-8"?>
<!-- Generator: Adobe Illustrator 27.3.1, SVG Export Plug-In . SVG Version: 6.00 Build 0)  -->
<svg version="1.1" id="Layer_2_00000062887738580268791470000015923184222455958914_"
	 xmlns="http://www.w3.org/2000/svg" xmlns:xlink="http://www.w3.org/1999/xlink" x="0px" y="0px" viewBox="0 0 663.4 663.4"
	 style="enable-background:new 0 0 663.4 663.4;" xml:space="preserve">
<style type="text/css">
	.st0{fill:#ED1164;}
	.st1{fill:#FFFFFF;}
</style>
<g>
	<rect x="45.4" y="28.7" class="st0" width="113" height="113"/>
	<path class="st1" d="M18.1,26.8h89.3v17.5H51.5v13h51.9v16.7H51.5v16.2H109v18.6h-91V26.8z"/>
	<path class="st1" d="M70.7,14.3h43.5l22.6,39.3l22-39.3h43L162,76.2l43.5,65.8h-44.3L136,101l-25.2,41H66.7l44-66.5L70.7,14.3z"/>
	<path class="st1" d="M127.5,108.8h20.3c4.4,0,7.7,1.1,9.9,3.2c2.2,2.1,3.3,5.1,3.3,9c0,4-1.2,7.1-3.6,9.3c-2.4,2.2-6.1,3.4-11,3.4
		h-6.7v14.7h-12.3V108.8z M139.8,125.6h3c2.4,0,4-0.4,5-1.2c1-0.8,1.4-1.9,1.4-3.1c0-1.2-0.4-2.3-1.2-3.2c-0.8-0.9-2.4-1.3-4.7-1.3
		h-3.5V125.6z"/>
</g>
<g>
	<polygon class="st0" points="357.4,114.7 340.8,141.7 357.4,141.7 	"/>
	<polygon class="st0" points="340.6,75.5 333.2,64.3 333.2,74.1 281.3,74.1 281.3,90.2 330.8,90.2 	"/>
	<polygon class="st0" points="380.5,28.7 352.2,28.7 366.6,53.6 	"/>
	<polygon class="st0" points="281.3,57.4 328.7,57.4 320.2,44.3 281.3,44.3 	"/>
	<path class="st0" d="M377.6,124.4c0.7-0.6,1.1-1.3,1.3-2.1l-3.2-5.2c-0.7-0.2-1.6-0.3-2.6-0.3h-3.5v8.8h3
		C375,125.6,376.6,125.2,377.6,124.4z"/>
	<polygon class="st0" points="318.5,108.8 275.2,108.8 275.2,141.7 296.7,141.7 	"/>
	<polygon class="st0" points="365.8,101 361,108.8 370.6,108.8 	"/>
	<path class="st0" d="M384.8,131.9c-2.2,1.1-5,1.7-8.5,1.7h-6.7v8.1h18.6v-4.2L384.8,131.9z"/>
</g>
</svg>
